{
    "asset" : {
        "generator" : "Khronos glTF Blender I/O v1.2.75",
        "version" : "2.0"
    },
    "scene" : 0,
    "scenes" : [
        {
            "name" : "Scene",
            "nodes" : [
                0
            ]
        }
    ],
    "nodes" : [
        {
            "mesh" : 0,
            "name" : "planet",
            "rotation" : [
                -0.7071068286895752,
                0.7071067690849304,
                0,
                -1.9949602858559956e-07
            ],
            "scale" : [
                1.0349475145339966,
                1.0349475145339966,
                1.0349475145339966
            ]
        }
    ],
    "materials" : [
        {
            "doubleSided" : true,
            "emissiveFactor" : [
                0,
                0,
                0
            ],
            "name" : "roads",
            "pbrMetallicRoughness" : {
                "baseColorTexture" : {
                    "index" : 0,
                    "texCoord" : 0
                },
                "metallicFactor" : 0,
                "roughnessFactor" : 0.5
            }
        },
        {
            "doubleSided" : true,
            "emissiveFactor" : [
                0,
                0,
                0
            ],
            "name" : "water",
            "pbrMetallicRoughness" : {
                "baseColorFactor" : [
                    0.012286469340324402,
                    0.05780543386936188,
                    0.25818297266960144,
                    1
                ],
                "metallicFactor" : 0,
                "roughnessFactor" : 0.5
            }
        },
        {
            "doubleSided" : true,
            "emissiveFactor" : [
                0,
                0,
                0
            ],
            "name" : "roofs",
            "pbrMetallicRoughness" : {
                "baseColorFactor" : [
                    0.08650040626525879,
                    0.2541521191596985,
                    0.7912981510162354,
                    1
                ],
                "metallicFactor" : 0,
                "roughnessFactor" : 0.5
            }
        },
        {
            "doubleSided" : true,
            "emissiveFactor" : [
                0,
                0,
                0
            ],
            "name" : "grass",
            "pbrMetallicRoughness" : {
                "baseColorFactor" : [
                    0.09859521687030792,
                    0.48689690232276917,
                    0.4333024322986603,
                    1
                ],
                "metallicFactor" : 0,
                "roughnessFactor" : 0.5
            }
        },
        {
            "doubleSided" : true,
            "emissiveFactor" : [
                0,
                0,
                0
            ],
            "name" : "walls",
            "pbrMetallicRoughness" : {
                "baseColorFactor" : [
                    1,
                    0.2917705774307251,
                    0.5711250901222229,
                    1
                ],
                "metallicFactor" : 0,
                "roughnessFactor" : 0.5
            }
        },
        {
            "doubleSided" : true,
            "emissiveFactor" : [
                0,
                0,
                0
            ],
            "name" : "trees_blueL1",
            "pbrMetallicRoughness" : {
                "baseColorFactor" : [
                    0,
                    0,
                    0,
                    1
                ],
                "metallicFactor" : 0,
                "roughnessFactor" : 0.5
            }
        },
        {
            "doubleSided" : true,
            "emissiveFactor" : [
                0,
                0,
                0
            ],
            "name" : "trees_white",
            "pbrMetallicRoughness" : {
                "baseColorFactor" : [
                    0.8000000715255737,
                    0,
                    0.6213814616203308,
                    1
                ],
                "metallicFactor" : 0,
                "roughnessFactor" : 0.5
            }
        },
        {
            "doubleSided" : true,
            "emissiveFactor" : [
                0,
                0,
                0
            ],
            "name" : "trees_blueD1",
            "pbrMetallicRoughness" : {
                "baseColorFactor" : [
                    0.25818297266960144,
                    0,
                    0.0020537744276225567,
                    1
                ],
                "metallicFactor" : 0,
                "roughnessFactor" : 0.5
            }
        },
        {
            "doubleSided" : true,
            "emissiveFactor" : [
                0,
                0,
                0
            ],
            "name" : "trees_blue",
            "pbrMetallicRoughness" : {
                "baseColorFactor" : [
                    0.6533076763153076,
                    0.7912980914115906,
                    0,
                    1
                ],
                "metallicFactor" : 0,
                "roughnessFactor" : 0.5
            }
        }
    ],
    "meshes" : [
        {
            "name" : "Sphere.006",
            "primitives" : [
                {
                    "attributes" : {
                        "POSITION" : 0,
                        "NORMAL" : 1,
                        "COLOR_0" : 2
                    },
                    "indices" : 3,
                    "material" : 0
                },
                {
                    "attributes" : {
                        "POSITION" : 4,
                        "NORMAL" : 5,
                        "COLOR_0" : 6
                    },
                    "indices" : 7,
                    "material" : 1
                },
                {
                    "attributes" : {
                        "POSITION" : 8,
                        "NORMAL" : 9,
                        "COLOR_0" : 10
                    },
                    "indices" : 11,
                    "material" : 2
                },
                {
                    "attributes" : {
                        "POSITION" : 12,
                        "NORMAL" : 13,
                        "COLOR_0" : 14
                    },
                    "indices" : 15,
                    "material" : 3
                },
                {
                    "attributes" : {
                        "POSITION" : 16,
                        "NORMAL" : 17,
                        "COLOR_0" : 18
                    },
                    "indices" : 19,
                    "material" : 4
                },
                {
                    "attributes" : {
                        "POSITION" : 20,
                        "NORMAL" : 21,
                        "COLOR_0" : 22
                    },
                    "indices" : 23,
                    "material" : 5
                },
                {
                    "attributes" : {
                        "POSITION" : 24,
                        "NORMAL" : 25,
                        "COLOR_0" : 26
                    },
                    "indices" : 27,
                    "material" : 6
                },
                {
                    "attributes" : {
                        "POSITION" : 28,
                        "NORMAL" : 29,
                        "COLOR_0" : 30
                    },
                    "indices" : 31,
                    "material" : 7
                },
                {
                    "attributes" : {
                        "POSITION" : 32,
                        "NORMAL" : 33,
                        "COLOR_0" : 34
                    },
                    "indices" : 35,
                    "material" : 8
                }
            ]
        }
    ],
    "textures" : [
        {
            "source" : 0
        }
    ],
    "images" : [
        {
            "bufferView" : 4,
            "mimeType" : "image/png",
            "name" : "parisTexture"
        }
    ],
    "accessors" : [
        {
            "bufferView" : 0,
            "componentType" : 5126,
            "count" : 1333,
            "max" : [
                1.0009610652923584,
                0.3941330313682556,
                0.8691629767417908
            ],
            "min" : [
                -0.9988742470741272,
                -0.9745016694068909,
                -1.0072522163391113
            ],
            "type" : "VEC3"
        },
        {
            "bufferView" : 1,
            "componentType" : 5126,
            "count" : 1333,
            "type" : "VEC3"
        },
        {
            "bufferView" : 2,
            "componentType" : 5126,
            "count" : 1333,
            "type" : "VEC4"
        },
        {
            "bufferView" : 3,
            "componentType" : 5123,
            "count" : 1902,
            "type" : "SCALAR"
        },
        {
            "bufferView" : 5,
            "componentType" : 5126,
            "count" : 262,
            "max" : [
                0.8791305422782898,
                0.6081963181495667,
                0.9443285465240479
            ],
            "min" : [
                -0.9478829503059387,
                -0.44871416687965393,
                -0.9526011347770691
            ],
            "type" : "VEC3"
        },
        {
            "bufferView" : 6,
            "componentType" : 5126,
            "count" : 262,
            "type" : "VEC3"
        },
        {
            "bufferView" : 7,
            "componentType" : 5126,
            "count" : 262,
            "type" : "VEC4"
        },
        {
            "bufferView" : 8,
            "componentType" : 5123,
            "count" : 360,
            "type" : "SCALAR"
        },
        {
            "bufferView" : 9,
            "componentType" : 5126,
            "count" : 2893,
            "max" : [
                1.0788105726242065,
                1.4561548233032227,
                1.2859814167022705
            ],
            "min" : [
                -1.1577777862548828,
                -1.0202034711837769,
                -0.6765018105506897
            ],
            "type" : "VEC3"
        },
        {
            "bufferView" : 10,
            "componentType" : 5126,
            "count" : 2893,
            "type" : "VEC3"
        },
        {
            "bufferView" : 11,
            "componentType" : 5126,
            "count" : 2893,
            "type" : "VEC4"
        },
        {
            "bufferView" : 12,
            "componentType" : 5123,
            "count" : 3849,
            "type" : "SCALAR"
        },
        {
            "bufferView" : 13,
            "componentType" : 5126,
            "count" : 3057,
            "max" : [
                1.0218135118484497,
                0.9897517561912537,
                0.9882656931877136
            ],
            "min" : [
                -1.0198917388916016,
                -0.9917789697647095,
                -1.023429036140442
            ],
            "type" : "VEC3"
        },
        {
            "bufferView" : 14,
            "componentType" : 5126,
            "count" : 3057,
            "type" : "VEC3"
        },
        {
            "bufferView" : 15,
            "componentType" : 5126,
            "count" : 3057,
            "type" : "VEC4"
        },
        {
            "bufferView" : 16,
            "componentType" : 5123,
            "count" : 4209,
            "type" : "SCALAR"
        },
        {
            "bufferView" : 17,
            "componentType" : 5126,
            "count" : 3684,
            "max" : [
                1.0775226354599,
                1.4306951761245728,
                1.2785322666168213
            ],
            "min" : [
                -1.125302791595459,
                -1.6772022247314453,
                -0.6765018105506897
            ],
            "type" : "VEC3"
        },
        {
            "bufferView" : 18,
            "componentType" : 5126,
            "count" : 3684,
            "type" : "VEC3"
        },
        {
            "bufferView" : 19,
            "componentType" : 5126,
            "count" : 3684,
            "type" : "VEC4"
        },
        {
            "bufferView" : 20,
            "componentType" : 5123,
            "count" : 5136,
            "type" : "SCALAR"
        },
        {
            "bufferView" : 21,
            "componentType" : 5126,
            "count" : 1098,
            "max" : [
                0.8607791066169739,
                0.9271664619445801,
                0.9716376066207886
            ],
            "min" : [
                -1.0147807598114014,
                -0.7598605751991272,
                -1.0404342412948608
            ],
            "type" : "VEC3"
        },
        {
            "bufferView" : 22,
            "componentType" : 5126,
            "count" : 1098,
            "type" : "VEC3"
        },
        {
            "bufferView" : 23,
            "componentType" : 5126,
            "count" : 1098,
            "type" : "VEC4"
        },
        {
            "bufferView" : 24,
            "componentType" : 5123,
            "count" : 1110,
            "type" : "SCALAR"
        },
        {
            "bufferView" : 25,
            "componentType" : 5126,
            "count" : 1320,
            "max" : [
                1.0291589498519897,
                0.9730011820793152,
                0.9908947348594666
            ],
            "min" : [
                -0.6320714354515076,
                -0.9329321384429932,
                -1.0535390377044678
            ],
            "type" : "VEC3"
        },
        {
            "bufferView" : 26,
            "componentType" : 5126,
            "count" : 1320,
            "type" : "VEC3"
        },
        {
            "bufferView" : 27,
            "componentType" : 5126,
            "count" : 1320,
            "type" : "VEC4"
        },
        {
            "bufferView" : 28,
            "componentType" : 5123,
            "count" : 1320,
            "type" : "SCALAR"
        },
        {
            "bufferView" : 29,
            "componentType" : 5126,
            "count" : 1344,
            "max" : [
                1.0377991199493408,
                0.9365909099578857,
                0.8833262324333191
            ],
            "min" : [
                -0.9074742197990417,
                -0.8338590264320374,
                -1.0447752475738525
            ],
            "type" : "VEC3"
        },
        {
            "bufferView" : 30,
            "componentType" : 5126,
            "count" : 1344,
            "type" : "VEC3"
        },
        {
            "bufferView" : 31,
            "componentType" : 5126,
            "count" : 1344,
            "type" : "VEC4"
        },
        {
            "bufferView" : 32,
            "componentType" : 5123,
            "count" : 1356,
            "type" : "SCALAR"
        },
        {
            "bufferView" : 33,
            "componentType" : 5126,
            "count" : 1206,
            "max" : [
                1.0247011184692383,
                0.9177255630493164,
                0.9212814569473267
            ],
            "min" : [
                -1.1479377746582031,
                -0.9383659958839417,
                -1.0549736022949219
            ],
            "type" : "VEC3"
        },
        {
            "bufferView" : 34,
            "componentType" : 5126,
            "count" : 1206,
            "type" : "VEC3"
        },
        {
            "bufferView" : 35,
            "componentType" : 5126,
            "count" : 1206,
            "type" : "VEC4"
        },
        {
            "bufferView" : 36,
            "componentType" : 5123,
            "count" : 1206,
            "type" : "SCALAR"
        }
    ],
    "bufferViews" : [
        {
            "buffer" : 0,
            "byteLength" : 15996,
            "byteOffset" : 0
        },
        {
            "buffer" : 0,
            "byteLength" : 15996,
            "byteOffset" : 15996
        },
        {
            "buffer" : 0,
            "byteLength" : 21328,
            "byteOffset" : 31992
        },
        {
            "buffer" : 0,
            "byteLength" : 3804,
            "byteOffset" : 53320
        },
        {
            "buffer" : 0,
            "byteLength" : 272,
            "byteOffset" : 57124
        },
        {
            "buffer" : 0,
            "byteLength" : 3144,
            "byteOffset" : 57396
        },
        {
            "buffer" : 0,
            "byteLength" : 3144,
            "byteOffset" : 60540
        },
        {
            "buffer" : 0,
            "byteLength" : 4192,
            "byteOffset" : 63684
        },
        {
            "buffer" : 0,
            "byteLength" : 720,
            "byteOffset" : 67876
        },
        {
            "buffer" : 0,
            "byteLength" : 34716,
            "byteOffset" : 68596
        },
        {
            "buffer" : 0,
            "byteLength" : 34716,
            "byteOffset" : 103312
        },
        {
            "buffer" : 0,
            "byteLength" : 46288,
            "byteOffset" : 138028
        },
        {
            "buffer" : 0,
            "byteLength" : 7698,
            "byteOffset" : 184316
        },
        {
            "buffer" : 0,
            "byteLength" : 36684,
            "byteOffset" : 192016
        },
        {
            "buffer" : 0,
            "byteLength" : 36684,
            "byteOffset" : 228700
        },
        {
            "buffer" : 0,
            "byteLength" : 48912,
            "byteOffset" : 265384
        },
        {
            "buffer" : 0,
            "byteLength" : 8418,
            "byteOffset" : 314296
        },
        {
            "buffer" : 0,
            "byteLength" : 44208,
            "byteOffset" : 322716
        },
        {
            "buffer" : 0,
            "byteLength" : 44208,
            "byteOffset" : 366924
        },
        {
            "buffer" : 0,
            "byteLength" : 58944,
            "byteOffset" : 411132
        },
        {
            "buffer" : 0,
            "byteLength" : 10272,
            "byteOffset" : 470076
        },
        {
            "buffer" : 0,
            "byteLength" : 13176,
            "byteOffset" : 480348
        },
        {
            "buffer" : 0,
            "byteLength" : 13176,
            "byteOffset" : 493524
        },
        {
            "buffer" : 0,
            "byteLength" : 17568,
            "byteOffset" : 506700
        },
        {
            "buffer" : 0,
            "byteLength" : 2220,
            "byteOffset" : 524268
        },
        {
            "buffer" : 0,
            "byteLength" : 15840,
            "byteOffset" : 526488
        },
        {
            "buffer" : 0,
            "byteLength" : 15840,
            "byteOffset" : 542328
        },
        {
            "buffer" : 0,
            "byteLength" : 21120,
            "byteOffset" : 558168
        },
        {
            "buffer" : 0,
            "byteLength" : 2640,
            "byteOffset" : 579288
        },
        {
            "buffer" : 0,
            "byteLength" : 16128,
            "byteOffset" : 581928
        },
        {
            "buffer" : 0,
            "byteLength" : 16128,
            "byteOffset" : 598056
        },
        {
            "buffer" : 0,
            "byteLength" : 21504,
            "byteOffset" : 614184
        },
        {
            "buffer" : 0,
            "byteLength" : 2712,
            "byteOffset" : 635688
        },
        {
            "buffer" : 0,
            "byteLength" : 14472,
            "byteOffset" : 638400
        },
        {
            "buffer" : 0,
            "byteLength" : 14472,
            "byteOffset" : 652872
        },
        {
            "buffer" : 0,
            "byteLength" : 19296,
            "byteOffset" : 667344
        },
        {
            "buffer" : 0,
            "byteLength" : 2412,
            "byteOffset" : 686640
        }
    ],
    "buffers" : [
        {
            "byteLength" : 689052,
            "uri" : "data:application/octet-stream;base64,"
        }
    ]
}
