{
    "asset" : {
        "generator" : "Khronos glTF Blender I/O v1.2.75",
        "version" : "2.0"
    },
    "scene" : 0,
    "scenes" : [
        {
            "name" : "Scene",
            "nodes" : [
                0,
                1,
                2,
                3,
                4,
                5,
                6,
                7,
                8,
                9
            ]
        }
    ],
    "nodes" : [
        {
            "mesh" : 0,
            "name" : "glassDarkBlue"
        },
        {
            "mesh" : 1,
            "name" : "glassRed"
        },
        {
            "mesh" : 2,
            "name" : "blue"
        },
        {
            "mesh" : 3,
            "name" : "water"
        },
        {
            "mesh" : 4,
            "name" : "glassGreen"
        },
        {
            "mesh" : 5,
            "name" : "yellow"
        },
        {
            "mesh" : 6,
            "name" : "glassWhite"
        },
        {
            "mesh" : 7,
            "name" : "white"
        },
        {
            "mesh" : 8,
            "name" : "green"
        },
        {
            "mesh" : 9,
            "name" : "red"
        }
    ],
    "meshes" : [
        {
            "name" : "Cube.002",
            "primitives" : [
                {
                    "attributes" : {
                        "POSITION" : 0,
                        "NORMAL" : 1
                    },
                    "indices" : 2
                }
            ]
        },
        {
            "name" : "Cube.001",
            "primitives" : [
                {
                    "attributes" : {
                        "POSITION" : 3,
                        "NORMAL" : 4
                    },
                    "indices" : 5
                }
            ]
        },
        {
            "name" : "Cube.006",
            "primitives" : [
                {
                    "attributes" : {
                        "POSITION" : 6,
                        "NORMAL" : 7
                    },
                    "indices" : 8
                }
            ]
        },
        {
            "name" : "Cube.008",
            "primitives" : [
                {
                    "attributes" : {
                        "POSITION" : 9,
                        "NORMAL" : 10
                    },
                    "indices" : 11
                }
            ]
        },
        {
            "name" : "Cube.009",
            "primitives" : [
                {
                    "attributes" : {
                        "POSITION" : 12,
                        "NORMAL" : 13
                    },
                    "indices" : 14
                }
            ]
        },
        {
            "name" : "Cube.010",
            "primitives" : [
                {
                    "attributes" : {
                        "POSITION" : 15,
                        "NORMAL" : 16
                    },
                    "indices" : 17
                }
            ]
        },
        {
            "name" : "Cube.011",
            "primitives" : [
                {
                    "attributes" : {
                        "POSITION" : 18,
                        "NORMAL" : 19
                    },
                    "indices" : 5
                }
            ]
        },
        {
            "name" : "Cube.012",
            "primitives" : [
                {
                    "attributes" : {
                        "POSITION" : 20,
                        "NORMAL" : 21
                    },
                    "indices" : 22
                }
            ]
        },
        {
            "name" : "Cube.013",
            "primitives" : [
                {
                    "attributes" : {
                        "POSITION" : 23,
                        "NORMAL" : 24
                    },
                    "indices" : 25
                }
            ]
        },
        {
            "name" : "Cube.014",
            "primitives" : [
                {
                    "attributes" : {
                        "POSITION" : 26,
                        "NORMAL" : 27
                    },
                    "indices" : 28
                }
            ]
        }
    ],
    "accessors" : [
        {
            "bufferView" : 0,
            "componentType" : 5126,
            "count" : 180,
            "max" : [
                0.21217769384384155,
                0.4327056407928467,
                -0.4170900881290436
            ],
            "min" : [
                -0.33968448638916016,
                0.3087189197540283,
                -0.7602645754814148
            ],
            "type" : "VEC3"
        },
        {
            "bufferView" : 1,
            "componentType" : 5126,
            "count" : 180,
            "type" : "VEC3"
        },
        {
            "bufferView" : 2,
            "componentType" : 5123,
            "count" : 180,
            "type" : "SCALAR"
        },
        {
            "bufferView" : 3,
            "componentType" : 5126,
            "count" : 240,
            "max" : [
                0.30761322379112244,
                0.7295211553573608,
                0.11802584677934647
            ],
            "min" : [
                -0.26602667570114136,
                0.3059215247631073,
                -0.48026877641677856
            ],
            "type" : "VEC3"
        },
        {
            "bufferView" : 4,
            "componentType" : 5126,
            "count" : 240,
            "type" : "VEC3"
        },
        {
            "bufferView" : 5,
            "componentType" : 5123,
            "count" : 240,
            "type" : "SCALAR"
        },
        {
            "bufferView" : 6,
            "componentType" : 5126,
            "count" : 1596,
            "max" : [
                0.7136523723602295,
                0.9918087720870972,
                0.5772126913070679
            ],
            "min" : [
                -0.7286702394485474,
                -0.2917160093784332,
                -0.7987129092216492
            ],
            "type" : "VEC3"
        },
        {
            "bufferView" : 7,
            "componentType" : 5126,
            "count" : 1596,
            "type" : "VEC3"
        },
        {
            "bufferView" : 8,
            "componentType" : 5123,
            "count" : 2370,
            "type" : "SCALAR"
        },
        {
            "bufferView" : 9,
            "componentType" : 5126,
            "count" : 164,
            "max" : [
                0.5870272517204285,
                -0.2330378293991089,
                0.566974401473999
            ],
            "min" : [
                -0.5282381772994995,
                -0.6616311073303223,
                -0.39173653721809387
            ],
            "type" : "VEC3"
        },
        {
            "bufferView" : 10,
            "componentType" : 5126,
            "count" : 164,
            "type" : "VEC3"
        },
        {
            "bufferView" : 11,
            "componentType" : 5123,
            "count" : 216,
            "type" : "SCALAR"
        },
        {
            "bufferView" : 12,
            "componentType" : 5126,
            "count" : 540,
            "max" : [
                0.5999962687492371,
                0.6880382299423218,
                0.425244003534317
            ],
            "min" : [
                -0.5671464800834656,
                -0.4764788746833801,
                -0.7483701705932617
            ],
            "type" : "VEC3"
        },
        {
            "bufferView" : 13,
            "componentType" : 5126,
            "count" : 540,
            "type" : "VEC3"
        },
        {
            "bufferView" : 14,
            "componentType" : 5123,
            "count" : 540,
            "type" : "SCALAR"
        },
        {
            "bufferView" : 15,
            "componentType" : 5126,
            "count" : 1019,
            "max" : [
                0.604056179523468,
                1.0230445861816406,
                0.28859665989875793
            ],
            "min" : [
                -0.3365055322647095,
                0.11908595263957977,
                -0.31012311577796936
            ],
            "type" : "VEC3"
        },
        {
            "bufferView" : 16,
            "componentType" : 5126,
            "count" : 1019,
            "type" : "VEC3"
        },
        {
            "bufferView" : 17,
            "componentType" : 5123,
            "count" : 1566,
            "type" : "SCALAR"
        },
        {
            "bufferView" : 18,
            "componentType" : 5126,
            "count" : 240,
            "max" : [
                0.6074338555335999,
                0.4463117718696594,
                -0.2604421079158783
            ],
            "min" : [
                -0.29257330298423767,
                -0.2943905293941498,
                -0.7327514290809631
            ],
            "type" : "VEC3"
        },
        {
            "bufferView" : 19,
            "componentType" : 5126,
            "count" : 240,
            "type" : "VEC3"
        },
        {
            "bufferView" : 20,
            "componentType" : 5126,
            "count" : 270,
            "max" : [
                0.29101505875587463,
                0.8340044021606445,
                0.3183113932609558
            ],
            "min" : [
                -0.628218412399292,
                0.41990751028060913,
                -0.26871129870414734
            ],
            "type" : "VEC3"
        },
        {
            "bufferView" : 21,
            "componentType" : 5126,
            "count" : 270,
            "type" : "VEC3"
        },
        {
            "bufferView" : 22,
            "componentType" : 5123,
            "count" : 432,
            "type" : "SCALAR"
        },
        {
            "bufferView" : 23,
            "componentType" : 5126,
            "count" : 229,
            "max" : [
                0.7136523723602295,
                0.2339613437652588,
                0.6443480849266052
            ],
            "min" : [
                -0.7060580849647522,
                -0.5671710968017578,
                -0.7267083525657654
            ],
            "type" : "VEC3"
        },
        {
            "bufferView" : 24,
            "componentType" : 5126,
            "count" : 229,
            "type" : "VEC3"
        },
        {
            "bufferView" : 25,
            "componentType" : 5123,
            "count" : 321,
            "type" : "SCALAR"
        },
        {
            "bufferView" : 26,
            "componentType" : 5126,
            "count" : 606,
            "max" : [
                0.604056179523468,
                0.8745526075363159,
                0.3719994127750397
            ],
            "min" : [
                -0.6468473672866821,
                0.27256372570991516,
                -0.31012311577796936
            ],
            "type" : "VEC3"
        },
        {
            "bufferView" : 27,
            "componentType" : 5126,
            "count" : 606,
            "type" : "VEC3"
        },
        {
            "bufferView" : 28,
            "componentType" : 5123,
            "count" : 951,
            "type" : "SCALAR"
        }
    ],
    "bufferViews" : [
        {
            "buffer" : 0,
            "byteLength" : 2160,
            "byteOffset" : 0
        },
        {
            "buffer" : 0,
            "byteLength" : 2160,
            "byteOffset" : 2160
        },
        {
            "buffer" : 0,
            "byteLength" : 360,
            "byteOffset" : 4320
        },
        {
            "buffer" : 0,
            "byteLength" : 2880,
            "byteOffset" : 4680
        },
        {
            "buffer" : 0,
            "byteLength" : 2880,
            "byteOffset" : 7560
        },
        {
            "buffer" : 0,
            "byteLength" : 480,
            "byteOffset" : 10440
        },
        {
            "buffer" : 0,
            "byteLength" : 19152,
            "byteOffset" : 10920
        },
        {
            "buffer" : 0,
            "byteLength" : 19152,
            "byteOffset" : 30072
        },
        {
            "buffer" : 0,
            "byteLength" : 4740,
            "byteOffset" : 49224
        },
        {
            "buffer" : 0,
            "byteLength" : 1968,
            "byteOffset" : 53964
        },
        {
            "buffer" : 0,
            "byteLength" : 1968,
            "byteOffset" : 55932
        },
        {
            "buffer" : 0,
            "byteLength" : 432,
            "byteOffset" : 57900
        },
        {
            "buffer" : 0,
            "byteLength" : 6480,
            "byteOffset" : 58332
        },
        {
            "buffer" : 0,
            "byteLength" : 6480,
            "byteOffset" : 64812
        },
        {
            "buffer" : 0,
            "byteLength" : 1080,
            "byteOffset" : 71292
        },
        {
            "buffer" : 0,
            "byteLength" : 12228,
            "byteOffset" : 72372
        },
        {
            "buffer" : 0,
            "byteLength" : 12228,
            "byteOffset" : 84600
        },
        {
            "buffer" : 0,
            "byteLength" : 3132,
            "byteOffset" : 96828
        },
        {
            "buffer" : 0,
            "byteLength" : 2880,
            "byteOffset" : 99960
        },
        {
            "buffer" : 0,
            "byteLength" : 2880,
            "byteOffset" : 102840
        },
        {
            "buffer" : 0,
            "byteLength" : 3240,
            "byteOffset" : 105720
        },
        {
            "buffer" : 0,
            "byteLength" : 3240,
            "byteOffset" : 108960
        },
        {
            "buffer" : 0,
            "byteLength" : 864,
            "byteOffset" : 112200
        },
        {
            "buffer" : 0,
            "byteLength" : 2748,
            "byteOffset" : 113064
        },
        {
            "buffer" : 0,
            "byteLength" : 2748,
            "byteOffset" : 115812
        },
        {
            "buffer" : 0,
            "byteLength" : 642,
            "byteOffset" : 118560
        },
        {
            "buffer" : 0,
            "byteLength" : 7272,
            "byteOffset" : 119204
        },
        {
            "buffer" : 0,
            "byteLength" : 7272,
            "byteOffset" : 126476
        },
        {
            "buffer" : 0,
            "byteLength" : 1902,
            "byteOffset" : 133748
        }
    ],
    "buffers" : [
        {
            "byteLength" : 135652,
            "uri" : "data:application/octet-stream;base64,"
        }
    ]
}
